<?xml version="1.0" encoding="UTF-8" standalone="no"?>
<!DOCTYPE svg PUBLIC "-//W3C//DTD SVG 1.1//EN"
 "http://www.w3.org/Graphics/SVG/1.1/DTD/svg11.dtd">
<!-- Generated by graphviz version 2.43.0 (0)
 -->
<!-- Title: G Pages: 1 -->
<svg width="233pt" height="265pt"
 viewBox="0.00 0.00 232.82 264.96" xmlns="http://www.w3.org/2000/svg" xmlns:xlink="http://www.w3.org/1999/xlink">
<g id="graph0" class="graph" transform="scale(1 1) rotate(0) translate(4 260.96)">
<title>G</title>
<polygon fill="white" stroke="transparent" points="-4,4 -4,-260.96 228.82,-260.96 228.82,4 -4,4"/>
<!-- vm1 -->
<g id="node1" class="node">
<title>vm1</title>
<ellipse fill="#0080ff" stroke="#0080ff" cx="156.2" cy="-34.02" rx="34.05" ry="34.05"/>
<text text-anchor="middle" x="156.2" y="-28.92" font-family="Libertine" font-size="17.00" fill="white">vm1</text>
</g>
<!-- vm0 -->
<g id="node2" class="node">
<title>vm0</title>
<ellipse fill="#0080ff" stroke="#0080ff" cx="190.8" cy="-100.31" rx="34.05" ry="34.05"/>
<text text-anchor="middle" x="190.8" y="-95.21" font-family="Libertine" font-size="17.00" fill="white">vm0</text>
</g>
<!-- vm1&#45;&#45;vm0 -->
<g id="edge1" class="edge">
<title>vm1&#45;&#45;vm0</title>
<path fill="none" stroke="transparent" stroke-width="3" d="M172.08,-64.45C173,-66.22 173.93,-68 174.86,-69.77"/>
</g>
<!-- vm2 -->
<g id="node3" class="node">
<title>vm2</title>
<ellipse fill="#0080ff" stroke="#0080ff" cx="34.02" cy="-76.55" rx="34.05" ry="34.05"/>
<text text-anchor="middle" x="34.02" y="-71.45" font-family="Libertine" font-size="17.00" fill="white">vm2</text>
</g>
<!-- vm2&#45;&#45;vm1 -->
<g id="edge3" class="edge">
<title>vm2&#45;&#45;vm1</title>
<path fill="none" stroke="transparent" stroke-width="3" d="M66.44,-65.27C84.26,-59.06 106.28,-51.4 124.05,-45.21"/>
</g>
<!-- vm2&#45;&#45;vm0 -->
<g id="edge2" class="edge">
<title>vm2&#45;&#45;vm0</title>
<path fill="none" stroke="transparent" stroke-width="3" d="M68.04,-81.71C94.43,-85.71 130.81,-91.22 157.11,-95.21"/>
</g>
<!-- vm3 -->
<g id="node4" class="node">
<title>vm3</title>
<ellipse fill="#0080ff" stroke="#0080ff" cx="72.57" cy="-172.46" rx="34.05" ry="34.05"/>
<text text-anchor="middle" x="72.57" y="-167.36" font-family="Libertine" font-size="17.00" fill="white">vm3</text>
</g>
<!-- vm3&#45;&#45;vm1 -->
<g id="edge5" class="edge">
<title>vm3&#45;&#45;vm1</title>
<path fill="none" stroke="transparent" stroke-width="3" d="M90.31,-143.1C104.5,-119.6 124.3,-86.82 138.49,-63.34"/>
</g>
<!-- vm3&#45;&#45;vm0 -->
<g id="edge4" class="edge">
<title>vm3&#45;&#45;vm0</title>
<path fill="none" stroke="transparent" stroke-width="3" d="M101.8,-154.62C119.99,-143.52 143.3,-129.3 161.5,-118.19"/>
</g>
<!-- vm3&#45;&#45;vm2 -->
<g id="edge6" class="edge">
<title>vm3&#45;&#45;vm2</title>
<path fill="none" stroke="transparent" stroke-width="3" d="M59.84,-140.79C55.63,-130.31 50.95,-118.66 46.74,-108.19"/>
</g>
<!-- vm4 -->
<g id="node5" class="node">
<title>vm4</title>
<ellipse fill="#0080ff" stroke="#0080ff" cx="178.85" cy="-222.94" rx="34.05" ry="34.05"/>
<text text-anchor="middle" x="178.85" y="-217.84" font-family="Libertine" font-size="17.00" fill="white">vm4</text>
</g>
<!-- vm4&#45;&#45;vm1 -->
<g id="edge8" class="edge">
<title>vm4&#45;&#45;vm1</title>
<path fill="none" stroke="transparent" stroke-width="3" d="M174.75,-188.73C170.64,-154.49 164.36,-102.13 160.27,-67.98"/>
</g>
<!-- vm4&#45;&#45;vm0 -->
<g id="edge7" class="edge">
<title>vm4&#45;&#45;vm0</title>
<path fill="none" stroke="transparent" stroke-width="3" d="M182.18,-188.78C183.84,-171.77 185.83,-151.27 187.49,-134.29"/>
</g>
<!-- vm4&#45;&#45;vm2 -->
<g id="edge9" class="edge">
<title>vm4&#45;&#45;vm2</title>
<path fill="none" stroke="transparent" stroke-width="3" d="M154.61,-198.44C127.88,-171.42 85.11,-128.19 58.34,-101.13"/>
</g>
<!-- vm4&#45;&#45;vm3 -->
<g id="edge10" class="edge">
<title>vm4&#45;&#45;vm3</title>
<path fill="none" stroke="transparent" stroke-width="3" d="M148.11,-208.34C134.14,-201.7 117.63,-193.86 103.61,-187.2"/>
</g>
</g>
</svg>
