<?xml version="1.0" encoding="UTF-8" standalone="no"?>
<!DOCTYPE svg PUBLIC "-//W3C//DTD SVG 1.1//EN"
 "http://www.w3.org/Graphics/SVG/1.1/DTD/svg11.dtd">
<!-- Generated by graphviz version 2.43.0 (0)
 -->
<!-- Title: G Pages: 1 -->
<svg width="260pt" height="231pt"
 viewBox="0.00 0.00 260.27 231.16" xmlns="http://www.w3.org/2000/svg" xmlns:xlink="http://www.w3.org/1999/xlink">
<g id="graph0" class="graph" transform="scale(1 1) rotate(0) translate(4 227.16)">
<title>G</title>
<polygon fill="white" stroke="transparent" points="-4,4 -4,-227.16 256.27,-227.16 256.27,4 -4,4"/>
<!-- vm1 -->
<g id="node1" class="node">
<title>vm1</title>
<ellipse fill="#0080ff" stroke="#0080ff" cx="34.02" cy="-55.13" rx="34.05" ry="34.05"/>
<text text-anchor="middle" x="34.02" y="-50.03" font-family="Libertine" font-size="17.00" fill="white">vm1</text>
</g>
<!-- vm0 -->
<g id="node2" class="node">
<title>vm0</title>
<ellipse fill="#0080ff" stroke="#0080ff" cx="218.25" cy="-75.81" rx="34.05" ry="34.05"/>
<text text-anchor="middle" x="218.25" y="-70.71" font-family="Libertine" font-size="17.00" fill="white">vm0</text>
</g>
<!-- vm1&#45;&#45;vm0 -->
<g id="edge1" class="edge">
<title>vm1&#45;&#45;vm0</title>
<path fill="none" stroke="transparent" stroke-width="3" d="M68.24,-58.97C101.33,-62.68 151.18,-68.28 184.21,-71.99"/>
</g>
<!-- vm2 -->
<g id="node3" class="node">
<title>vm2</title>
<ellipse fill="#0080ff" stroke="#0080ff" cx="169.25" cy="-34.02" rx="34.05" ry="34.05"/>
<text text-anchor="middle" x="169.25" y="-28.92" font-family="Libertine" font-size="17.00" fill="white">vm2</text>
</g>
<!-- vm2&#45;&#45;vm1 -->
<g id="edge3" class="edge">
<title>vm2&#45;&#45;vm1</title>
<path fill="none" stroke="transparent" stroke-width="3" d="M135.48,-39.29C114.83,-42.52 88.5,-46.63 67.84,-49.85"/>
</g>
<!-- vm2&#45;&#45;vm0 -->
<g id="edge2" class="edge">
<title>vm2&#45;&#45;vm0</title>
<path fill="none" stroke="transparent" stroke-width="3" d="M195.19,-56.14C195.28,-56.22 195.37,-56.29 195.46,-56.37"/>
</g>
<!-- vm3 -->
<g id="node4" class="node">
<title>vm3</title>
<ellipse fill="#0080ff" stroke="#0080ff" cx="172.57" cy="-189.14" rx="34.05" ry="34.05"/>
<text text-anchor="middle" x="172.57" y="-184.04" font-family="Libertine" font-size="17.00" fill="white">vm3</text>
</g>
<!-- vm3&#45;&#45;vm1 -->
<g id="edge5" class="edge">
<title>vm3&#45;&#45;vm1</title>
<path fill="none" stroke="transparent" stroke-width="3" d="M147.8,-165.18C122.58,-140.79 83.72,-103.2 58.58,-78.88"/>
</g>
<!-- vm3&#45;&#45;vm0 -->
<g id="edge4" class="edge">
<title>vm3&#45;&#45;vm0</title>
<path fill="none" stroke="transparent" stroke-width="3" d="M185.3,-157.57C191.58,-141.98 199.14,-123.22 205.44,-107.6"/>
</g>
<!-- vm3&#45;&#45;vm2 -->
<g id="edge6" class="edge">
<title>vm3&#45;&#45;vm2</title>
<path fill="none" stroke="transparent" stroke-width="3" d="M171.85,-155.1C171.29,-129.32 170.54,-94.07 169.99,-68.25"/>
</g>
<!-- vm4 -->
<g id="node5" class="node">
<title>vm4</title>
<ellipse fill="#0080ff" stroke="#0080ff" cx="86.24" cy="-138.86" rx="34.05" ry="34.05"/>
<text text-anchor="middle" x="86.24" y="-133.76" font-family="Libertine" font-size="17.00" fill="white">vm4</text>
</g>
<!-- vm4&#45;&#45;vm1 -->
<g id="edge8" class="edge">
<title>vm4&#45;&#45;vm1</title>
<path fill="none" stroke="transparent" stroke-width="3" d="M67.98,-109.58C62.86,-101.37 57.3,-92.46 52.19,-84.26"/>
</g>
<!-- vm4&#45;&#45;vm0 -->
<g id="edge7" class="edge">
<title>vm4&#45;&#45;vm0</title>
<path fill="none" stroke="transparent" stroke-width="3" d="M117.19,-124.08C138.38,-113.96 166.35,-100.6 187.49,-90.5"/>
</g>
<!-- vm4&#45;&#45;vm2 -->
<g id="edge9" class="edge">
<title>vm4&#45;&#45;vm2</title>
<path fill="none" stroke="transparent" stroke-width="3" d="M107.41,-112.14C119.9,-96.36 135.65,-76.47 148.13,-60.7"/>
</g>
<!-- vm4&#45;&#45;vm3 -->
<g id="edge10" class="edge">
<title>vm4&#45;&#45;vm3</title>
<path fill="none" stroke="transparent" stroke-width="3" d="M115.95,-156.17C124.73,-161.28 134.34,-166.87 143.1,-171.97"/>
</g>
</g>
</svg>
