<?xml version="1.0" encoding="UTF-8" standalone="no"?>
<!DOCTYPE svg PUBLIC "-//W3C//DTD SVG 1.1//EN"
 "http://www.w3.org/Graphics/SVG/1.1/DTD/svg11.dtd">
<!-- Generated by graphviz version 2.43.0 (0)
 -->
<!-- Title: G Pages: 1 -->
<svg width="231pt" height="246pt"
 viewBox="0.00 0.00 231.37 246.06" xmlns="http://www.w3.org/2000/svg" xmlns:xlink="http://www.w3.org/1999/xlink">
<g id="graph0" class="graph" transform="scale(1 1) rotate(0) translate(4 242.06)">
<title>G</title>
<polygon fill="white" stroke="transparent" points="-4,4 -4,-242.06 227.37,-242.06 227.37,4 -4,4"/>
<!-- vm1 -->
<g id="node1" class="node">
<title>vm1</title>
<ellipse fill="#fc3236" stroke="#fc3236" cx="34.02" cy="-108.58" rx="34.05" ry="34.05"/>
<text text-anchor="middle" x="34.02" y="-103.48" font-family="Libertine" font-size="17.00" fill="white">vm1</text>
</g>
<!-- vm0 -->
<g id="node2" class="node">
<title>vm0</title>
<ellipse fill="#fc3236" stroke="#fc3236" cx="179.18" cy="-106.98" rx="34.05" ry="34.05"/>
<text text-anchor="middle" x="179.18" y="-101.88" font-family="Libertine" font-size="17.00" fill="white">vm0</text>
</g>
<!-- vm1&#45;&#45;vm0 -->
<g id="edge1" class="edge">
<title>vm1&#45;&#45;vm0</title>
<path fill="none" stroke="transparent" stroke-width="3" d="M68.05,-108.21C91.27,-107.95 121.89,-107.61 145.11,-107.36"/>
</g>
<!-- vm2 -->
<g id="node3" class="node">
<title>vm2</title>
<ellipse fill="#fc3236" stroke="#fc3236" cx="114.78" cy="-34.02" rx="34.05" ry="34.05"/>
<text text-anchor="middle" x="114.78" y="-28.92" font-family="Libertine" font-size="17.00" fill="white">vm2</text>
</g>
<!-- vm2&#45;&#45;vm1 -->
<g id="edge3" class="edge">
<title>vm2&#45;&#45;vm1</title>
<path fill="none" stroke="transparent" stroke-width="3" d="M89.67,-57.2C79.95,-66.18 68.84,-76.44 59.12,-85.41"/>
</g>
<!-- vm2&#45;&#45;vm0 -->
<g id="edge2" class="edge">
<title>vm2&#45;&#45;vm0</title>
<path fill="none" stroke="transparent" stroke-width="3" d="M137.3,-59.54C143.54,-66.61 150.31,-74.28 156.56,-81.36"/>
</g>
<!-- vm3 -->
<g id="node4" class="node">
<title>vm3</title>
<ellipse fill="#fc3236" stroke="#fc3236" cx="87.76" cy="-190.88" rx="34.05" ry="34.05"/>
<text text-anchor="middle" x="87.76" y="-185.78" font-family="Libertine" font-size="17.00" fill="white">vm3</text>
</g>
<!-- vm3&#45;&#45;vm1 -->
<g id="edge5" class="edge">
<title>vm3&#45;&#45;vm1</title>
<path fill="none" stroke="transparent" stroke-width="3" d="M68.96,-162.09C63.7,-154.03 57.97,-145.27 52.71,-137.21"/>
</g>
<!-- vm3&#45;&#45;vm0 -->
<g id="edge4" class="edge">
<title>vm3&#45;&#45;vm0</title>
<path fill="none" stroke="transparent" stroke-width="3" d="M113.22,-167.51C125.9,-155.87 141.19,-141.85 153.85,-130.23"/>
</g>
<!-- vm3&#45;&#45;vm2 -->
<g id="edge6" class="edge">
<title>vm3&#45;&#45;vm2</title>
<path fill="none" stroke="transparent" stroke-width="3" d="M93.55,-157.23C98.11,-130.76 104.43,-94.07 108.99,-67.62"/>
</g>
<!-- vm4 -->
<g id="node5" class="node">
<title>vm4</title>
<ellipse fill="#fc3236" stroke="#fc3236" cx="189.35" cy="-204.04" rx="34.05" ry="34.05"/>
<text text-anchor="middle" x="189.35" y="-198.94" font-family="Libertine" font-size="17.00" fill="white">vm4</text>
</g>
<!-- vm4&#45;&#45;vm1 -->
<g id="edge8" class="edge">
<title>vm4&#45;&#45;vm1</title>
<path fill="none" stroke="transparent" stroke-width="3" d="M160.13,-186.08C132.36,-169.02 90.83,-143.49 63.11,-126.45"/>
</g>
<!-- vm4&#45;&#45;vm0 -->
<g id="edge7" class="edge">
<title>vm4&#45;&#45;vm0</title>
<path fill="none" stroke="transparent" stroke-width="3" d="M185.79,-170.09C184.81,-160.69 183.74,-150.48 182.75,-141.07"/>
</g>
<!-- vm4&#45;&#45;vm2 -->
<g id="edge9" class="edge">
<title>vm4&#45;&#45;vm2</title>
<path fill="none" stroke="transparent" stroke-width="3" d="M175.67,-172.86C162.26,-142.28 141.92,-95.91 128.49,-65.3"/>
</g>
<!-- vm4&#45;&#45;vm3 -->
<g id="edge10" class="edge">
<title>vm4&#45;&#45;vm3</title>
<path fill="none" stroke="transparent" stroke-width="3" d="M155.52,-199.66C144.67,-198.25 132.65,-196.69 121.78,-195.29"/>
</g>
</g>
</svg>
