<?xml version="1.0" encoding="UTF-8" standalone="no"?>
<!DOCTYPE svg PUBLIC "-//W3C//DTD SVG 1.1//EN"
 "http://www.w3.org/Graphics/SVG/1.1/DTD/svg11.dtd">
<!-- Generated by graphviz version 2.43.0 (0)
 -->
<!-- Title: G Pages: 1 -->
<svg width="256pt" height="210pt"
 viewBox="0.00 0.00 256.49 209.96" xmlns="http://www.w3.org/2000/svg" xmlns:xlink="http://www.w3.org/1999/xlink">
<g id="graph0" class="graph" transform="scale(1 1) rotate(0) translate(4 205.96)">
<title>G</title>
<polygon fill="white" stroke="transparent" points="-4,4 -4,-205.96 252.49,-205.96 252.49,4 -4,4"/>
<!-- vm1 -->
<g id="node1" class="node">
<title>vm1</title>
<ellipse fill="#fc3236" stroke="#fc3236" cx="34.02" cy="-99.92" rx="34.05" ry="34.05"/>
<text text-anchor="middle" x="34.02" y="-94.82" font-family="Libertine" font-size="17.00" fill="white">vm1</text>
</g>
<!-- vm0 -->
<g id="node2" class="node">
<title>vm0</title>
<ellipse fill="#fc3236" stroke="#fc3236" cx="214.47" cy="-146.76" rx="34.05" ry="34.05"/>
<text text-anchor="middle" x="214.47" y="-141.66" font-family="Libertine" font-size="17.00" fill="white">vm0</text>
</g>
<!-- vm1&#45;&#45;vm0 -->
<g id="edge1" class="edge">
<title>vm1&#45;&#45;vm0</title>
<path fill="none" stroke="transparent" stroke-width="3" d="M67.12,-108.51C99.58,-116.94 148.79,-129.71 181.28,-138.14"/>
</g>
<!-- vm2 -->
<g id="node3" class="node">
<title>vm2</title>
<ellipse fill="#fc3236" stroke="#fc3236" cx="103.82" cy="-34.02" rx="34.05" ry="34.05"/>
<text text-anchor="middle" x="103.82" y="-28.92" font-family="Libertine" font-size="17.00" fill="white">vm2</text>
</g>
<!-- vm2&#45;&#45;vm1 -->
<g id="edge3" class="edge">
<title>vm2&#45;&#45;vm1</title>
<path fill="none" stroke="transparent" stroke-width="3" d="M79.02,-57.44C72.59,-63.51 65.67,-70.05 59.22,-76.13"/>
</g>
<!-- vm2&#45;&#45;vm0 -->
<g id="edge2" class="edge">
<title>vm2&#45;&#45;vm0</title>
<path fill="none" stroke="transparent" stroke-width="3" d="M127.83,-58.48C146.39,-77.39 171.96,-103.45 190.51,-122.34"/>
</g>
<!-- vm3 -->
<g id="node4" class="node">
<title>vm3</title>
<ellipse fill="#fc3236" stroke="#fc3236" cx="118.46" cy="-167.94" rx="34.05" ry="34.05"/>
<text text-anchor="middle" x="118.46" y="-162.84" font-family="Libertine" font-size="17.00" fill="white">vm3</text>
</g>
<!-- vm3&#45;&#45;vm1 -->
<g id="edge5" class="edge">
<title>vm3&#45;&#45;vm1</title>
<path fill="none" stroke="transparent" stroke-width="3" d="M91.74,-146.42C81.79,-138.4 70.5,-129.31 60.57,-121.3"/>
</g>
<!-- vm3&#45;&#45;vm0 -->
<g id="edge4" class="edge">
<title>vm3&#45;&#45;vm0</title>
<path fill="none" stroke="transparent" stroke-width="3" d="M151.77,-160.59C161.3,-158.49 171.69,-156.2 181.22,-154.09"/>
</g>
<!-- vm3&#45;&#45;vm2 -->
<g id="edge6" class="edge">
<title>vm3&#45;&#45;vm2</title>
<path fill="none" stroke="transparent" stroke-width="3" d="M114.73,-133.8C112.53,-113.65 109.75,-88.24 107.55,-68.1"/>
</g>
<!-- vm4 -->
<g id="node5" class="node">
<title>vm4</title>
<ellipse fill="#fc3236" stroke="#fc3236" cx="195.44" cy="-36.68" rx="34.05" ry="34.05"/>
<text text-anchor="middle" x="195.44" y="-31.58" font-family="Libertine" font-size="17.00" fill="white">vm4</text>
</g>
<!-- vm4&#45;&#45;vm1 -->
<g id="edge8" class="edge">
<title>vm4&#45;&#45;vm1</title>
<path fill="none" stroke="transparent" stroke-width="3" d="M163.55,-49.17C135.25,-60.26 94.13,-76.37 65.85,-87.45"/>
</g>
<!-- vm4&#45;&#45;vm0 -->
<g id="edge7" class="edge">
<title>vm4&#45;&#45;vm0</title>
<path fill="none" stroke="transparent" stroke-width="3" d="M201.25,-70.3C203.59,-83.83 206.29,-99.41 208.63,-112.96"/>
</g>
<!-- vm4&#45;&#45;vm2 -->
<g id="edge9" class="edge">
<title>vm4&#45;&#45;vm2</title>
<path fill="none" stroke="transparent" stroke-width="3" d="M161.33,-35.69C153.7,-35.47 145.6,-35.23 137.97,-35.01"/>
</g>
<!-- vm4&#45;&#45;vm3 -->
<g id="edge10" class="edge">
<title>vm4&#45;&#45;vm3</title>
<path fill="none" stroke="transparent" stroke-width="3" d="M178.17,-66.13C165.49,-87.75 148.34,-116.98 135.68,-138.58"/>
</g>
</g>
</svg>
