<?xml version="1.0" encoding="UTF-8" standalone="no"?>
<!DOCTYPE svg PUBLIC "-//W3C//DTD SVG 1.1//EN"
 "http://www.w3.org/Graphics/SVG/1.1/DTD/svg11.dtd">
<!-- Generated by graphviz version 2.43.0 (0)
 -->
<!-- Title: G Pages: 1 -->
<svg width="214pt" height="235pt"
 viewBox="0.00 0.00 213.69 234.59" xmlns="http://www.w3.org/2000/svg" xmlns:xlink="http://www.w3.org/1999/xlink">
<g id="graph0" class="graph" transform="scale(1 1) rotate(0) translate(4 230.59)">
<title>G</title>
<polygon fill="white" stroke="transparent" points="-4,4 -4,-230.59 209.69,-230.59 209.69,4 -4,4"/>
<!-- vm1 -->
<g id="node1" class="node">
<title>vm1</title>
<ellipse fill="#0080ff" stroke="#0080ff" cx="34.02" cy="-81.51" rx="34.05" ry="34.05"/>
<text text-anchor="middle" x="34.02" y="-76.41" font-family="Libertine" font-size="17.00" fill="white">vm1</text>
</g>
<!-- vm0 -->
<g id="node2" class="node">
<title>vm0</title>
<ellipse fill="#0080ff" stroke="#0080ff" cx="116.71" cy="-136.59" rx="34.05" ry="34.05"/>
<text text-anchor="middle" x="116.71" y="-131.49" font-family="Libertine" font-size="17.00" fill="white">vm0</text>
</g>
<!-- vm1&#45;&#45;vm0 -->
<g id="edge1" class="edge">
<title>vm1&#45;&#45;vm0</title>
<path fill="none" stroke="transparent" stroke-width="3" d="M62.48,-100.47C70.8,-106.01 79.88,-112.06 88.2,-117.6"/>
</g>
<!-- vm2 -->
<g id="node3" class="node">
<title>vm2</title>
<ellipse fill="#0080ff" stroke="#0080ff" cx="117.46" cy="-34.02" rx="34.05" ry="34.05"/>
<text text-anchor="middle" x="117.46" y="-28.92" font-family="Libertine" font-size="17.00" fill="white">vm2</text>
</g>
<!-- vm2&#45;&#45;vm1 -->
<g id="edge3" class="edge">
<title>vm2&#45;&#45;vm1</title>
<path fill="none" stroke="transparent" stroke-width="3" d="M87.81,-50.9C80.03,-55.33 71.64,-60.1 63.86,-64.53"/>
</g>
<!-- vm2&#45;&#45;vm0 -->
<g id="edge2" class="edge">
<title>vm2&#45;&#45;vm0</title>
<path fill="none" stroke="transparent" stroke-width="3" d="M117.21,-68.18C117.13,-79.13 117.04,-91.27 116.96,-102.24"/>
</g>
<!-- vm3 -->
<g id="node4" class="node">
<title>vm3</title>
<ellipse fill="#0080ff" stroke="#0080ff" cx="56.18" cy="-192.57" rx="34.05" ry="34.05"/>
<text text-anchor="middle" x="56.18" y="-187.47" font-family="Libertine" font-size="17.00" fill="white">vm3</text>
</g>
<!-- vm3&#45;&#45;vm1 -->
<g id="edge5" class="edge">
<title>vm3&#45;&#45;vm1</title>
<path fill="none" stroke="transparent" stroke-width="3" d="M49.47,-158.95C46.69,-145.03 43.48,-128.93 40.71,-115.02"/>
</g>
<!-- vm3&#45;&#45;vm0 -->
<g id="edge4" class="edge">
<title>vm3&#45;&#45;vm0</title>
<path fill="none" stroke="transparent" stroke-width="3" d="M81.5,-169.15C84.87,-166.04 88.32,-162.84 91.69,-159.73"/>
</g>
<!-- vm3&#45;&#45;vm2 -->
<g id="edge6" class="edge">
<title>vm3&#45;&#45;vm2</title>
<path fill="none" stroke="transparent" stroke-width="3" d="M68.58,-160.49C79.24,-132.89 94.55,-93.29 105.18,-65.79"/>
</g>
<!-- vm4 -->
<g id="node5" class="node">
<title>vm4</title>
<ellipse fill="#0080ff" stroke="#0080ff" cx="171.67" cy="-147.01" rx="34.05" ry="34.05"/>
<text text-anchor="middle" x="171.67" y="-141.91" font-family="Libertine" font-size="17.00" fill="white">vm4</text>
</g>
<!-- vm4&#45;&#45;vm1 -->
<g id="edge8" class="edge">
<title>vm4&#45;&#45;vm1</title>
<path fill="none" stroke="transparent" stroke-width="3" d="M140.78,-132.31C118.11,-121.53 87.46,-106.94 64.81,-96.16"/>
</g>
<!-- vm4&#45;&#45;vm0 -->
<g id="edge7" class="edge">
<title>vm4&#45;&#45;vm0</title>
<path fill="none" stroke="transparent" stroke-width="3" d="M138.12,-140.65C138.03,-140.63 137.94,-140.62 137.85,-140.6"/>
</g>
<!-- vm4&#45;&#45;vm2 -->
<g id="edge9" class="edge">
<title>vm4&#45;&#45;vm2</title>
<path fill="none" stroke="transparent" stroke-width="3" d="M156.86,-116.14C149.21,-100.2 139.9,-80.8 132.25,-64.86"/>
</g>
<!-- vm4&#45;&#45;vm3 -->
<g id="edge10" class="edge">
<title>vm4&#45;&#45;vm3</title>
<path fill="none" stroke="transparent" stroke-width="3" d="M139.81,-159.58C123.65,-165.96 104.08,-173.67 87.94,-180.04"/>
</g>
</g>
</svg>
