<?xml version="1.0" encoding="UTF-8" standalone="no"?>
<!DOCTYPE svg PUBLIC "-//W3C//DTD SVG 1.1//EN"
 "http://www.w3.org/Graphics/SVG/1.1/DTD/svg11.dtd">
<!-- Generated by graphviz version 2.43.0 (0)
 -->
<!-- Title: G Pages: 1 -->
<svg width="232pt" height="208pt"
 viewBox="0.00 0.00 231.84 208.42" xmlns="http://www.w3.org/2000/svg" xmlns:xlink="http://www.w3.org/1999/xlink">
<g id="graph0" class="graph" transform="scale(1 1) rotate(0) translate(4 204.42)">
<title>G</title>
<polygon fill="white" stroke="transparent" points="-4,4 -4,-204.42 227.84,-204.42 227.84,4 -4,4"/>
<!-- vm1 -->
<g id="node1" class="node">
<title>vm1</title>
<ellipse fill="#0080ff" stroke="#0080ff" cx="34.02" cy="-141.73" rx="34.05" ry="34.05"/>
<text text-anchor="middle" x="34.02" y="-136.63" font-family="Libertine" font-size="17.00" fill="white">vm1</text>
</g>
<!-- vm0 -->
<g id="node2" class="node">
<title>vm0</title>
<ellipse fill="#0080ff" stroke="#0080ff" cx="189.81" cy="-131.98" rx="34.05" ry="34.05"/>
<text text-anchor="middle" x="189.81" y="-126.88" font-family="Libertine" font-size="17.00" fill="white">vm0</text>
</g>
<!-- vm1&#45;&#45;vm0 -->
<g id="edge1" class="edge">
<title>vm1&#45;&#45;vm0</title>
<path fill="none" stroke="transparent" stroke-width="3" d="M68.21,-139.59C94.19,-137.97 129.75,-135.74 155.7,-134.12"/>
</g>
<!-- vm2 -->
<g id="node3" class="node">
<title>vm2</title>
<ellipse fill="#0080ff" stroke="#0080ff" cx="173.33" cy="-34.02" rx="34.05" ry="34.05"/>
<text text-anchor="middle" x="173.33" y="-28.92" font-family="Libertine" font-size="17.00" fill="white">vm2</text>
</g>
<!-- vm2&#45;&#45;vm1 -->
<g id="edge3" class="edge">
<title>vm2&#45;&#45;vm1</title>
<path fill="none" stroke="transparent" stroke-width="3" d="M146.14,-55.05C121.59,-74.02 85.67,-101.8 61.14,-120.76"/>
</g>
<!-- vm2&#45;&#45;vm0 -->
<g id="edge2" class="edge">
<title>vm2&#45;&#45;vm0</title>
<path fill="none" stroke="transparent" stroke-width="3" d="M179,-67.74C180.66,-77.59 182.47,-88.35 184.13,-98.21"/>
</g>
<!-- vm3 -->
<g id="node4" class="node">
<title>vm3</title>
<ellipse fill="#0080ff" stroke="#0080ff" cx="137.22" cy="-166.4" rx="34.05" ry="34.05"/>
<text text-anchor="middle" x="137.22" y="-161.3" font-family="Libertine" font-size="17.00" fill="white">vm3</text>
</g>
<!-- vm3&#45;&#45;vm1 -->
<g id="edge5" class="edge">
<title>vm3&#45;&#45;vm1</title>
<path fill="none" stroke="transparent" stroke-width="3" d="M104,-158.46C92.21,-155.64 78.96,-152.47 67.18,-149.66"/>
</g>
<!-- vm3&#45;&#45;vm0 -->
<g id="edge4" class="edge">
<title>vm3&#45;&#45;vm0</title>
<path fill="none" stroke="transparent" stroke-width="3" d="M165.98,-147.58C166.07,-147.52 166.17,-147.46 166.26,-147.39"/>
</g>
<!-- vm3&#45;&#45;vm2 -->
<g id="edge6" class="edge">
<title>vm3&#45;&#45;vm2</title>
<path fill="none" stroke="transparent" stroke-width="3" d="M146.24,-133.34C151.75,-113.12 158.78,-87.35 164.3,-67.12"/>
</g>
<!-- vm4 -->
<g id="node5" class="node">
<title>vm4</title>
<ellipse fill="#0080ff" stroke="#0080ff" cx="67.82" cy="-52.74" rx="34.05" ry="34.05"/>
<text text-anchor="middle" x="67.82" y="-47.64" font-family="Libertine" font-size="17.00" fill="white">vm4</text>
</g>
<!-- vm4&#45;&#45;vm1 -->
<g id="edge8" class="edge">
<title>vm4&#45;&#45;vm1</title>
<path fill="none" stroke="transparent" stroke-width="3" d="M55.72,-84.62C52.61,-92.8 49.27,-101.59 46.16,-109.78"/>
</g>
<!-- vm4&#45;&#45;vm0 -->
<g id="edge7" class="edge">
<title>vm4&#45;&#45;vm0</title>
<path fill="none" stroke="transparent" stroke-width="3" d="M96.42,-71.32C115.86,-83.95 141.48,-100.59 160.97,-113.25"/>
</g>
<!-- vm4&#45;&#45;vm2 -->
<g id="edge9" class="edge">
<title>vm4&#45;&#45;vm2</title>
<path fill="none" stroke="transparent" stroke-width="3" d="M101.5,-46.77C113.68,-44.61 127.43,-42.17 139.61,-40.01"/>
</g>
<!-- vm4&#45;&#45;vm3 -->
<g id="edge10" class="edge">
<title>vm4&#45;&#45;vm3</title>
<path fill="none" stroke="transparent" stroke-width="3" d="M85.69,-82.01C96.05,-98.98 109.06,-120.28 119.41,-137.23"/>
</g>
</g>
</svg>
