<?xml version="1.0" encoding="UTF-8" standalone="no"?>
<!DOCTYPE svg PUBLIC "-//W3C//DTD SVG 1.1//EN"
 "http://www.w3.org/Graphics/SVG/1.1/DTD/svg11.dtd">
<!-- Generated by graphviz version 2.43.0 (0)
 -->
<!-- Title: G Pages: 1 -->
<svg width="254pt" height="221pt"
 viewBox="0.00 0.00 254.04 221.31" xmlns="http://www.w3.org/2000/svg" xmlns:xlink="http://www.w3.org/1999/xlink">
<g id="graph0" class="graph" transform="scale(1 1) rotate(0) translate(4 217.31)">
<title>G</title>
<polygon fill="white" stroke="transparent" points="-4,4 -4,-217.31 250.04,-217.31 250.04,4 -4,4"/>
<!-- vm1 -->
<g id="node1" class="node">
<title>vm1</title>
<ellipse fill="#fc3236" stroke="#fc3236" cx="34.02" cy="-108.07" rx="34.05" ry="34.05"/>
<text text-anchor="middle" x="34.02" y="-102.97" font-family="Libertine" font-size="17.00" fill="white">vm1</text>
</g>
<!-- vm0 -->
<g id="node2" class="node">
<title>vm0</title>
<ellipse fill="#fc3236" stroke="#fc3236" cx="212.02" cy="-107.55" rx="34.05" ry="34.05"/>
<text text-anchor="middle" x="212.02" y="-102.45" font-family="Libertine" font-size="17.00" fill="white">vm0</text>
</g>
<!-- vm1&#45;&#45;vm0 -->
<g id="edge1" class="edge">
<title>vm1&#45;&#45;vm0</title>
<path fill="none" stroke="transparent" stroke-width="3" d="M68.34,-107.97C99.86,-107.88 146.32,-107.74 177.8,-107.65"/>
</g>
<!-- vm2 -->
<g id="node3" class="node">
<title>vm2</title>
<ellipse fill="#fc3236" stroke="#fc3236" cx="111" cy="-34.02" rx="34.05" ry="34.05"/>
<text text-anchor="middle" x="111" y="-28.92" font-family="Libertine" font-size="17.00" fill="white">vm2</text>
</g>
<!-- vm2&#45;&#45;vm1 -->
<g id="edge3" class="edge">
<title>vm2&#45;&#45;vm1</title>
<path fill="none" stroke="transparent" stroke-width="3" d="M86.22,-57.86C77.43,-66.31 67.54,-75.82 58.76,-84.27"/>
</g>
<!-- vm2&#45;&#45;vm0 -->
<g id="edge2" class="edge">
<title>vm2&#45;&#45;vm0</title>
<path fill="none" stroke="transparent" stroke-width="3" d="M138.6,-54.12C152.86,-64.49 170.2,-77.11 184.45,-87.48"/>
</g>
<!-- vm3 -->
<g id="node4" class="node">
<title>vm3</title>
<ellipse fill="#fc3236" stroke="#fc3236" cx="90.66" cy="-179.29" rx="34.05" ry="34.05"/>
<text text-anchor="middle" x="90.66" y="-174.19" font-family="Libertine" font-size="17.00" fill="white">vm3</text>
</g>
<!-- vm3&#45;&#45;vm1 -->
<g id="edge5" class="edge">
<title>vm3&#45;&#45;vm1</title>
<path fill="none" stroke="transparent" stroke-width="3" d="M69.25,-152.36C64.74,-146.69 59.98,-140.71 55.47,-135.03"/>
</g>
<!-- vm3&#45;&#45;vm0 -->
<g id="edge4" class="edge">
<title>vm3&#45;&#45;vm0</title>
<path fill="none" stroke="transparent" stroke-width="3" d="M120.04,-161.93C138.98,-150.73 163.52,-136.22 182.49,-125.01"/>
</g>
<!-- vm3&#45;&#45;vm2 -->
<g id="edge6" class="edge">
<title>vm3&#45;&#45;vm2</title>
<path fill="none" stroke="transparent" stroke-width="3" d="M95.43,-145.23C98.7,-121.92 103.01,-91.14 106.26,-67.87"/>
</g>
<!-- vm4 -->
<g id="node5" class="node">
<title>vm4</title>
<ellipse fill="#fc3236" stroke="#fc3236" cx="148.6" cy="-125.3" rx="34.05" ry="34.05"/>
<text text-anchor="middle" x="148.6" y="-120.2" font-family="Libertine" font-size="17.00" fill="white">vm4</text>
</g>
<!-- vm4&#45;&#45;vm1 -->
<g id="edge8" class="edge">
<title>vm4&#45;&#45;vm1</title>
<path fill="none" stroke="transparent" stroke-width="3" d="M114.84,-120.22C100.06,-118 82.74,-115.39 67.93,-113.17"/>
</g>
<!-- vm4&#45;&#45;vm0 -->
<g id="edge7" class="edge">
<title>vm4&#45;&#45;vm0</title>
<path fill="none" stroke="transparent" stroke-width="3" d="M181.42,-116.12C181.54,-116.08 181.66,-116.05 181.78,-116.01"/>
</g>
<!-- vm4&#45;&#45;vm2 -->
<g id="edge9" class="edge">
<title>vm4&#45;&#45;vm2</title>
<path fill="none" stroke="transparent" stroke-width="3" d="M135.55,-93.63C131.82,-84.57 127.75,-74.69 124.02,-65.64"/>
</g>
<!-- vm4&#45;&#45;vm3 -->
<g id="edge10" class="edge">
<title>vm4&#45;&#45;vm3</title>
<path fill="none" stroke="transparent" stroke-width="3" d="M123.69,-148.51C121.12,-150.91 118.5,-153.35 115.92,-155.76"/>
</g>
</g>
</svg>
