<?xml version="1.0" encoding="UTF-8" standalone="no"?>
<!DOCTYPE svg PUBLIC "-//W3C//DTD SVG 1.1//EN"
 "http://www.w3.org/Graphics/SVG/1.1/DTD/svg11.dtd">
<!-- Generated by graphviz version 2.43.0 (0)
 -->
<!-- Title: G Pages: 1 -->
<svg width="192pt" height="219pt"
 viewBox="0.00 0.00 192.38 219.39" xmlns="http://www.w3.org/2000/svg" xmlns:xlink="http://www.w3.org/1999/xlink">
<g id="graph0" class="graph" transform="scale(1 1) rotate(0) translate(4 215.39)">
<title>G</title>
<polygon fill="white" stroke="transparent" points="-4,4 -4,-215.39 188.38,-215.39 188.38,4 -4,4"/>
<!-- vm1 -->
<g id="node1" class="node">
<title>vm1</title>
<ellipse fill="#fc3236" stroke="#fc3236" cx="35.32" cy="-34.02" rx="34.05" ry="34.05"/>
<text text-anchor="middle" x="35.32" y="-28.92" font-family="Libertine" font-size="17.00" fill="white">vm1</text>
</g>
<!-- vm0 -->
<g id="node2" class="node">
<title>vm0</title>
<ellipse fill="#fc3236" stroke="#fc3236" cx="138.35" cy="-52.25" rx="34.05" ry="34.05"/>
<text text-anchor="middle" x="138.35" y="-47.15" font-family="Libertine" font-size="17.00" fill="white">vm0</text>
</g>
<!-- vm1&#45;&#45;vm0 -->
<g id="edge1" class="edge">
<title>vm1&#45;&#45;vm0</title>
<path fill="none" stroke="transparent" stroke-width="3" d="M69.05,-39.99C80.44,-42.01 93.14,-44.25 104.54,-46.27"/>
</g>
<!-- vm2 -->
<g id="node3" class="node">
<title>vm2</title>
<ellipse fill="#fc3236" stroke="#fc3236" cx="34.02" cy="-117.45" rx="34.05" ry="34.05"/>
<text text-anchor="middle" x="34.02" y="-112.35" font-family="Libertine" font-size="17.00" fill="white">vm2</text>
</g>
<!-- vm2&#45;&#45;vm1 -->
<g id="edge3" class="edge">
<title>vm2&#45;&#45;vm1</title>
<path fill="none" stroke="transparent" stroke-width="3" d="M34.56,-83.03C34.63,-78.1 34.71,-73.02 34.79,-68.09"/>
</g>
<!-- vm2&#45;&#45;vm0 -->
<g id="edge2" class="edge">
<title>vm2&#45;&#45;vm0</title>
<path fill="none" stroke="transparent" stroke-width="3" d="M63.08,-99.29C77.55,-90.24 95,-79.34 109.44,-70.32"/>
</g>
<!-- vm3 -->
<g id="node4" class="node">
<title>vm3</title>
<ellipse fill="#fc3236" stroke="#fc3236" cx="51.51" cy="-177.37" rx="34.05" ry="34.05"/>
<text text-anchor="middle" x="51.51" y="-172.27" font-family="Libertine" font-size="17.00" fill="white">vm3</text>
</g>
<!-- vm3&#45;&#45;vm1 -->
<g id="edge5" class="edge">
<title>vm3&#45;&#45;vm1</title>
<path fill="none" stroke="transparent" stroke-width="3" d="M47.67,-143.4C45.11,-120.71 41.75,-90.98 39.18,-68.25"/>
</g>
<!-- vm3&#45;&#45;vm0 -->
<g id="edge4" class="edge">
<title>vm3&#45;&#45;vm0</title>
<path fill="none" stroke="transparent" stroke-width="3" d="M71,-149.29C85.3,-128.69 104.64,-100.82 118.92,-80.24"/>
</g>
<!-- vm3&#45;&#45;vm2 -->
<g id="edge6" class="edge">
<title>vm3&#45;&#45;vm2</title>
<path fill="none" stroke="transparent" stroke-width="3" d="M41.95,-144.6C41.91,-144.49 41.88,-144.39 41.85,-144.28"/>
</g>
<!-- vm4 -->
<g id="node5" class="node">
<title>vm4</title>
<ellipse fill="#fc3236" stroke="#fc3236" cx="150.36" cy="-151.73" rx="34.05" ry="34.05"/>
<text text-anchor="middle" x="150.36" y="-146.63" font-family="Libertine" font-size="17.00" fill="white">vm4</text>
</g>
<!-- vm4&#45;&#45;vm1 -->
<g id="edge8" class="edge">
<title>vm4&#45;&#45;vm1</title>
<path fill="none" stroke="transparent" stroke-width="3" d="M126.52,-127.34C106.78,-107.14 78.86,-78.57 59.12,-58.38"/>
</g>
<!-- vm4&#45;&#45;vm0 -->
<g id="edge7" class="edge">
<title>vm4&#45;&#45;vm0</title>
<path fill="none" stroke="transparent" stroke-width="3" d="M146.26,-117.77C145.02,-107.53 143.67,-96.29 142.43,-86.05"/>
</g>
<!-- vm4&#45;&#45;vm2 -->
<g id="edge9" class="edge">
<title>vm4&#45;&#45;vm2</title>
<path fill="none" stroke="transparent" stroke-width="3" d="M117.64,-142.09C101.78,-137.41 82.78,-131.81 66.9,-127.13"/>
</g>
<!-- vm4&#45;&#45;vm3 -->
<g id="edge10" class="edge">
<title>vm4&#45;&#45;vm3</title>
<path fill="none" stroke="transparent" stroke-width="3" d="M117.17,-160.34C106.62,-163.07 94.97,-166.1 84.44,-168.83"/>
</g>
</g>
</svg>
